<?xml version="1.0" standalone="no"?>
<!DOCTYPE svg PUBLIC "-//W3C//DTD SVG 20010904//EN"
 "http://www.w3.org/TR/2001/REC-SVG-20010904/DTD/svg10.dtd">
<svg version="1.0" xmlns="http://www.w3.org/2000/svg"
 width="150" height="150" viewBox="0 0 500.000000 500.000000"
 preserveAspectRatio="xMidYMid meet">

<g transform="translate(0.000000,500.000000) scale(0.100000,-0.100000)"
fill="#ffff" stroke="none">
<path d="M2328 4811 c-95 -102 -182 -196 -192 -209 -19 -21 -18 -23 7 -79 38
-86 77 -219 77 -261 l0 -37 -32 50 c-47 75 -94 129 -139 160 -39 28 -40 28
-58 9 -84 -91 -181 -202 -181 -207 0 -3 55 -61 123 -129 148 -148 211 -230
277 -363 66 -136 92 -234 92 -354 1 -182 -57 -325 -183 -453 -101 -103 -177
-140 -300 -146 -226 -11 -402 122 -514 387 -51 120 -69 229 -69 406 0 233 43
417 150 645 122 259 312 464 629 680 70 48 41 49 -92 5 -150 -50 -327 -138
-474 -236 -97 -65 -157 -116 -275 -233 -154 -153 -216 -234 -317 -412 -233
-412 -302 -922 -187 -1374 28 -107 78 -249 79 -221 1 14 26 51 62 92 47 53 67
68 92 71 20 2 32 8 32 18 0 19 -64 18 -76 -2 -6 -9 -9 -8 -8 7 0 11 10 33 24
49 20 25 32 30 75 33 47 2 55 0 81 -28 16 -17 29 -42 29 -55 0 -19 5 -24 24
-24 16 0 39 -19 76 -61 45 -51 55 -59 60 -44 5 13 9 15 14 7 4 -7 5 -15 3 -19
-3 -5 12 -8 34 -8 25 0 39 5 39 13 0 6 5 12 10 12 6 0 10 -6 10 -14 0 -17 64
-41 85 -32 13 4 15 -10 13 -87 -1 -84 -2 -87 -7 -32 -6 59 -6 60 -39 63 -18 2
-40 -2 -47 -8 -8 -7 -18 -9 -23 -6 -6 3 -12 -28 -16 -72 -16 -197 -30 -221
-41 -74 -4 48 -10 101 -15 117 -7 27 -8 26 -11 -20 -2 -40 -3 -43 -6 -15 -8
75 -11 80 -50 80 -22 0 -41 -7 -49 -17 -12 -16 -13 -14 -14 19 0 28 -5 38 -21
43 -20 7 -28 1 -64 -51 -17 -23 -19 -91 -6 -196 1 -5 12 -8 26 -8 24 0 25 2
25 75 0 67 2 75 19 75 26 0 28 -10 22 -140 -5 -99 -8 -115 -23 -118 -13 -3
-18 3 -18 22 0 21 -5 26 -25 26 -23 0 -25 -4 -25 -41 0 -42 19 -72 42 -65 7 3
39 12 70 20 50 14 57 20 60 44 4 37 34 37 31 0 -2 -29 6 -35 24 -17 17 17 87
7 91 -13 3 -13 -1 -16 -13 -12 -24 10 -75 -43 -74 -75 1 -17 3 -20 6 -9 2 10
16 21 30 24 51 13 56 -23 34 -251 -6 -60 -6 -94 1 -102 19 -24 28 -13 28 32 0
25 3 46 8 46 4 1 32 3 63 4 63 2 79 9 79 35 0 11 9 24 20 30 16 9 20 21 20 63
0 94 -3 97 -81 97 -39 0 -69 -4 -69 -10 0 -5 -9 -10 -20 -10 -15 0 -20 7 -20
28 0 39 16 53 48 41 13 -5 27 -7 30 -4 10 10 -35 60 -57 63 -17 3 -21 10 -21
38 0 24 5 34 15 34 10 0 15 -10 15 -30 0 -26 5 -30 43 -40 23 -6 57 -16 76
-22 25 -8 35 -7 41 2 14 23 20 -38 14 -138 -6 -93 -5 -101 15 -121 11 -11 33
-21 47 -21 27 0 27 0 19 57 -11 82 -7 152 10 177 12 16 15 61 17 196 l2 175 6
-168 5 -168 50 51 c31 32 58 50 73 50 13 0 32 5 43 10 15 9 21 7 25 -5 10 -24
25 -17 18 9 -3 13 -1 34 6 46 14 26 -1 79 -31 106 -19 17 -22 17 -74 0 l-55
-17 -1 -47 -2 -47 -7 45 c-11 64 3 109 49 154 38 37 111 73 111 55 0 -16 43
-22 51 -6 16 27 74 0 124 -59 41 -47 45 -57 44 -101 -1 -26 -4 -38 -6 -26 -6
29 -20 40 -76 54 -44 12 -47 12 -66 -10 -26 -30 -34 -71 -21 -105 7 -19 7 -33
0 -47 -8 -13 -7 -19 0 -19 6 0 8 -4 5 -10 -8 -13 -62 -13 -67 -1 -2 5 -20 6
-43 2 -59 -11 -154 -107 -161 -164 -3 -23 -1 -53 5 -67 9 -23 10 -22 10 16 l1
41 73 22 72 22 27 -31 c35 -38 44 -74 29 -116 -10 -28 -9 -39 5 -70 17 -36 18
-36 28 -15 8 18 16 21 45 19 l36 -3 9 -85 c8 -67 11 -79 17 -55 3 17 7 53 8
82 1 55 2 57 43 67 18 4 32 1 42 -10 15 -14 16 -12 16 18 0 30 -3 33 -32 34
-18 1 -37 9 -45 20 -7 10 -13 12 -13 6 0 -16 -50 -15 -50 1 0 6 -5 4 -11 -5
-14 -25 -48 -22 -58 4 -12 32 -2 63 33 103 l31 36 73 -22 72 -22 1 -51 2 -51
7 45 c13 78 3 104 -64 170 -36 36 -70 60 -83 60 -33 0 -53 10 -53 27 0 11 5
13 18 8 9 -5 31 -10 48 -12 19 -3 45 -19 65 -39 44 -46 64 -45 65 4 4 105 11
152 26 169 14 15 16 32 11 99 -4 51 -2 88 5 100 9 15 11 0 12 -69 0 -85 1 -87
20 -77 11 6 20 8 20 4 0 -3 -9 -17 -20 -31 -11 -14 -20 -36 -20 -48 0 -22 2
-22 41 -14 23 6 51 16 63 24 26 19 65 19 85 1 21 -18 109 -37 117 -24 3 5 -6
26 -20 47 -37 53 -32 61 12 19 26 -25 50 -37 80 -42 l42 -6 1 57 c0 45 2 53 9
36 13 -33 30 -28 30 7 0 17 -4 30 -10 30 -5 0 -19 9 -30 20 -46 46 -8 140 58
140 43 0 82 -40 82 -85 0 -34 -27 -75 -50 -75 -5 0 -10 -13 -10 -30 0 -35 17
-40 29 -8 l8 22 6 -23 c5 -19 9 -21 25 -12 16 8 21 7 26 -4 6 -17 46 -21 46
-5 0 7 14 8 38 4 36 -7 111 -69 125 -104 3 -8 6 19 6 60 1 41 5 70 9 63 5 -8
23 -7 70 5 54 14 62 20 62 40 0 15 5 22 13 19 6 -2 11 -15 9 -28 -2 -19 0 -21
10 -11 15 15 60 16 76 0 9 -9 12 -6 12 15 0 17 5 27 15 27 9 0 15 -9 15 -23 0
-20 8 -26 57 -40 43 -11 60 -13 65 -4 16 25 19 -6 11 -119 l-8 -119 -5 80 -5
80 -45 0 c-54 0 -55 -3 -45 -150 l7 -100 49 3 c44 4 49 6 49 28 0 22 4 24 49
24 48 0 70 -17 55 -41 -3 -5 17 -9 44 -9 l49 0 7 79 c3 44 3 110 0 148 -7 78
5 100 51 89 l24 -6 3 -148 3 -147 35 -3 c19 -2 43 -11 53 -19 16 -15 17 -13
17 26 0 35 3 42 18 39 13 -3 16 -12 14 -42 -2 -22 1 -35 6 -32 6 3 29 -1 52
-9 23 -8 48 -15 54 -15 14 0 32 74 28 118 -3 28 -7 33 -25 30 -14 -2 -23 -11
-25 -26 -2 -15 -9 -22 -20 -20 -14 3 -18 18 -20 87 -3 90 -14 110 -59 111 -24
0 -29 -9 -15 -26 4 -5 -1 -1 -10 9 -10 11 -18 27 -18 37 0 19 39 73 40 54 0
-5 -5 -15 -12 -22 -15 -15 -6 -24 16 -16 14 5 16 28 18 168 l2 161 3 -157 4
-157 29 5 c20 4 34 1 45 -10 16 -16 35 -21 35 -10 0 3 -5 15 -11 27 -10 21 -9
21 10 -2 27 -30 27 -63 -1 -87 -13 -10 -17 -12 -10 -4 17 20 15 30 -8 30 -17
0 -20 -7 -20 -50 0 -47 2 -50 25 -50 16 0 25 6 25 15 0 9 9 15 25 15 16 0 25
-6 25 -15 0 -9 9 -15 25 -15 25 0 25 1 25 80 0 73 2 80 20 80 19 0 20 -7 20
-92 1 -111 5 -109 80 47 141 294 206 639 180 962 -25 313 -104 565 -261 828
-100 167 -167 255 -277 362 -243 239 -552 427 -809 492 -45 12 -84 21 -88 21
-4 0 17 -16 46 -37 368 -250 581 -516 699 -870 59 -179 94 -388 83 -498 -38
-383 -160 -613 -383 -719 -61 -29 -72 -31 -180 -31 -114 0 -117 1 -194 39
-221 109 -340 355 -306 633 31 245 152 455 394 678 l95 88 -101 113 c-56 63
-104 114 -107 114 -12 -1 -90 -66 -114 -95 -14 -17 -41 -57 -62 -90 l-37 -60
6 63 c4 39 23 107 52 182 l47 120 -39 42 c-53 60 -207 229 -281 309 l-62 67
-173 -187z m207 -1270 c7 -12 -12 -24 -25 -16 -11 7 -4 25 10 25 5 0 11 -4 15
-9z m-1680 -121 c3 -5 -1 -10 -9 -10 -9 0 -16 -9 -16 -20 0 -11 -4 -20 -10
-20 -5 0 -10 9 -10 20 0 11 -7 20 -16 20 -8 0 -12 5 -9 10 3 6 19 10 35 10 16
0 32 -4 35 -10z m150 1 c7 -12 -12 -24 -25 -16 -11 7 -4 25 10 25 5 0 11 -4
15 -9z m75 -234 c0 -16 6 -22 24 -23 21 -2 26 4 29 30 2 17 4 7 5 -24 0 -30
-2 -49 -5 -42 -9 23 -25 12 -20 -15 6 -30 -1 -53 -14 -53 -5 0 -9 19 -9 41 0
36 -2 40 -15 29 -13 -11 -15 -6 -15 39 0 32 4 50 10 46 6 -3 10 -16 10 -28z
m1362 -23 c17 -11 7 -24 -17 -24 -22 0 -25 -4 -25 -39 0 -22 -4 -43 -10 -46
-6 -4 -10 12 -10 39 0 43 -2 46 -26 46 -32 0 -27 22 7 31 24 6 65 2 81 -7z
m228 -49 c0 -8 -7 -15 -16 -15 -14 0 -14 3 -4 15 7 8 14 15 16 15 2 0 4 -7 4
-15z m1630 -10 c0 -8 -4 -15 -9 -15 -13 0 -22 16 -14 24 11 11 23 6 23 -9z
m-69 -36 c9 -18 7 -27 -10 -50 -17 -23 -19 -29 -6 -29 8 0 15 -7 15 -15 0 -9
-6 -12 -15 -9 -10 4 -15 0 -16 -12 -1 -17 -2 -17 -6 -1 -2 9 -9 17 -15 17 -5
0 -7 7 -4 16 3 8 -1 26 -10 39 -12 18 -13 28 -4 44 14 28 56 27 71 0z m-3380
-76 c26 0 29 3 29 34 0 18 5 33 10 33 6 0 10 -25 10 -55 0 -30 -4 -55 -10 -55
-5 0 -10 5 -10 10 0 6 -5 10 -10 10 -6 0 -9 -20 -8 -45 0 -25 -2 -48 -6 -52
-14 -14 -25 22 -19 60 4 24 2 37 -6 37 -6 0 -11 -4 -11 -10 0 -5 -4 -10 -10
-10 -12 0 -14 93 -2 104 4 4 8 -8 10 -26 3 -31 6 -35 33 -35z m1787 -19 c30
-8 29 -34 -2 -34 -25 0 -35 -20 -37 -75 0 -26 -2 -27 -9 -10 -5 11 -9 35 -9
53 -1 29 -4 32 -31 32 -33 0 -43 25 -12 33 26 7 74 7 100 1z m1287 -39 c12 0
22 9 26 25 6 20 7 17 8 -17 1 -35 -2 -41 -15 -36 -12 4 -15 0 -14 -18 4 -42 0
-60 -10 -54 -5 3 -10 22 -10 40 0 26 -3 33 -15 29 -17 -7 -21 29 -8 63 7 16 8
15 13 -7 3 -16 12 -25 25 -25z m-3219 -93 c-11 -10 -12 3 -7 63 l6 60 3 -59
c2 -32 1 -61 -2 -64z m1514 52 c0 -20 5 -24 29 -24 26 0 30 4 34 33 2 17 4 5
5 -28 0 -33 -2 -54 -5 -47 -10 26 -22 10 -25 -35 -3 -56 -23 -57 -23 -1 0 20
-3 40 -7 44 -5 4 -8 2 -8 -4 0 -7 -4 -12 -10 -12 -5 0 -10 25 -10 56 0 34 4
53 10 49 6 -3 10 -17 10 -31z m-971 -20 c17 -4 31 -13 31 -20 0 -7 -6 -11 -12
-9 -21 8 -34 -8 -46 -50 l-10 -40 -1 37 c-1 38 -29 67 -51 53 -6 -3 -10 1 -10
9 0 8 12 16 28 19 15 2 30 5 33 6 4 0 21 -2 38 -5z m-204 -43 c7 -12 -12 -24
-25 -16 -11 7 -4 25 10 25 5 0 11 -4 15 -9z m1632 -43 c-3 -7 -5 -2 -5 12 0
14 2 19 5 13 2 -7 2 -19 0 -25z m1431 -3 c12 -15 22 -32 22 -40 0 -12 -4 -12
-27 0 -35 18 -53 4 -53 -41 0 -19 -4 -34 -10 -34 -5 0 -10 15 -10 33 0 17 -5
39 -10 47 -8 13 -13 13 -40 -2 -31 -18 -31 -18 -24 5 20 67 105 85 152 32z
m-3398 -11 c0 -8 -4 -12 -10 -9 -5 3 -10 10 -10 16 0 5 5 9 10 9 6 0 10 -7 10
-16z m2111 -4 c23 -13 25 -48 4 -56 -17 -7 -21 -34 -5 -34 7 0 6 -5 -2 -13
-10 -11 -15 -11 -30 2 -13 11 -14 17 -5 23 9 6 9 10 -1 20 -23 23 -14 60 16
67 2 1 12 -4 23 -9z m-771 -15 c-20 -24 -4 -30 39 -15 28 9 43 9 59 1 11 -6
28 -11 37 -11 13 0 14 4 5 23 -11 22 -11 22 9 -2 12 -13 21 -31 21 -41 0 -20
-39 -72 -40 -53 0 6 5 15 10 18 14 9 12 25 -2 25 -7 0 -26 -7 -41 -15 -25 -13
-32 -12 -62 2 -41 19 -55 11 -36 -20 14 -22 14 -22 -8 -3 -11 11 -21 30 -21
43 0 30 17 63 32 63 7 0 6 -5 -2 -15z m1948 -27 c-6 -18 -28 -21 -28 -4 0 9 7
16 16 16 9 0 14 -5 12 -12z m-501 -40 c-3 -9 6 -13 29 -13 21 0 34 5 34 13 0
6 5 12 10 12 6 0 10 -6 10 -13 0 -14 67 -40 82 -31 4 3 7 -23 7 -58 -1 -50 -3
-56 -8 -28 -5 28 -11 36 -32 38 -14 2 -37 -2 -51 -7 -25 -9 -27 -14 -33 -110
-4 -56 -11 -101 -15 -101 -8 0 -12 23 -26 152 -7 60 -15 68 -76 68 -24 0 -27
-4 -31 -37 -2 -26 -4 -17 -5 25 -1 34 1 61 6 60 21 -6 82 15 82 27 0 8 5 15
11 15 6 0 9 -6 6 -12z m-2065 -30 c-7 -7 -12 -20 -12 -31 0 -19 5 -19 75 5 23
8 42 7 78 -6 26 -9 52 -16 57 -16 15 0 12 26 -5 40 -8 7 -15 17 -15 22 0 16
30 -13 46 -44 18 -34 6 -84 -26 -113 -23 -21 -26 -9 -5 19 8 11 15 23 15 28 0
13 -43 9 -74 -7 -15 -8 -34 -15 -41 -15 -7 0 -26 7 -41 15 -16 8 -37 15 -46
15 -19 0 -25 -25 -8 -35 6 -3 10 -14 10 -23 -1 -36 -50 42 -50 79 0 35 35 97
48 84 3 -3 0 -11 -6 -17z m1038 -34 c15 -16 31 -39 35 -51 6 -22 5 -22 -22 -8
-15 8 -36 15 -45 15 -23 0 -40 -34 -36 -72 2 -18 -2 -33 -9 -35 -9 -3 -13 9
-13 40 0 54 -17 71 -59 62 -22 -5 -31 -13 -34 -33 -3 -19 -4 -14 -6 14 -1 36
4 46 34 72 29 26 41 30 81 28 35 -3 53 -10 74 -32z m1520 -80 c26 1 30 5 30
28 0 15 5 30 10 33 6 4 10 -15 10 -49 0 -31 -4 -56 -10 -56 -5 0 -10 5 -10 10
0 6 -4 10 -10 10 -5 0 -9 -21 -7 -46 1 -30 -2 -48 -10 -51 -9 -3 -13 10 -13
46 0 28 -4 51 -10 51 -5 0 -10 -6 -10 -12 0 -8 -4 -7 -10 2 -5 9 -6 36 -2 60
l7 45 3 -36 c3 -33 6 -36 32 -35z m-1015 36 c-7 -23 13 -27 46 -9 14 7 29 7
54 -2 40 -15 54 -7 34 17 -12 15 -12 17 1 12 8 -2 19 -17 24 -31 12 -32 -2
-78 -24 -85 -13 -5 -13 -3 -2 11 23 27 10 36 -31 22 -33 -11 -44 -11 -74 2
l-35 14 6 -28 c7 -26 6 -27 -10 -11 -20 20 -23 70 -4 92 17 22 23 20 15 -4z
m833 -22 c17 -17 15 -34 -5 -53 -13 -14 -14 -18 -3 -25 11 -7 11 -11 -1 -23
-12 -11 -17 -12 -27 -1 -6 7 -9 19 -6 27 3 8 1 18 -5 22 -12 7 -15 48 -4 58
10 11 38 8 51 -5z m-1508 -98 c0 -5 -4 -10 -10 -10 -5 0 -10 5 -10 10 0 6 5
10 10 10 6 0 10 -4 10 -10z m560 -15 c0 -8 -4 -15 -10 -15 -5 0 -10 7 -10 15
0 8 5 15 10 15 6 0 10 -7 10 -15z m-1486 -159 c-9 -15 -14 -30 -10 -33 4 -4
32 2 62 12 43 14 60 16 74 8 24 -16 90 -27 90 -16 0 5 -7 18 -15 29 -19 25
-19 40 1 23 27 -22 46 -69 39 -98 -6 -28 -55 -85 -55 -64 0 6 7 16 15 23 8 7
15 19 15 27 0 11 -8 13 -32 8 -18 -4 -37 -11 -42 -16 -6 -5 -24 -9 -41 -9 -17
0 -35 4 -40 9 -6 5 -25 12 -42 16 -25 5 -33 3 -33 -8 0 -8 7 -20 15 -27 8 -7
15 -17 15 -23 0 -7 -12 0 -26 15 -36 35 -37 98 -4 133 29 31 37 25 14 -9z
m2423 -138 c-3 -8 -6 -5 -6 6 -1 11 2 17 5 13 3 -3 4 -12 1 -19z m-2177 -38
c0 -5 -5 -10 -11 -10 -5 0 -7 5 -4 10 3 6 8 10 11 10 2 0 4 -4 4 -10z"/>
<path d="M970 2621 c-15 -28 -13 -31 19 -31 17 0 31 6 35 16 3 8 10 12 16 9 5
-3 10 -2 10 3 0 9 -32 22 -57 22 -7 0 -17 -9 -23 -19z"/>
<path d="M833 2427 c-34 -11 -65 -26 -67 -34 -3 -7 20 -63 52 -125 l57 -113 3
93 c2 84 4 92 22 92 18 0 20 -7 20 -75 0 -74 0 -75 25 -75 24 0 25 3 20 34 -4
18 -2 50 4 71 8 29 7 46 -5 74 -15 35 -52 82 -63 80 -3 0 -34 -10 -68 -22z"/>
<path d="M3222 2298 c-18 -18 -15 -43 8 -63 24 -21 26 -40 5 -31 -12 4 -15 -2
-14 -27 1 -18 3 -24 6 -14 2 9 8 17 13 17 5 0 11 -8 13 -17 4 -17 5 -17 6 0 1
20 17 23 24 5 3 -7 6 -1 6 14 1 20 -3 26 -14 22 -21 -9 -19 10 5 31 34 31 20
75 -25 75 -12 0 -26 -5 -33 -12z"/>
<path d="M2633 2283 c-7 -3 -13 -21 -13 -40 l0 -36 21 26 c21 27 16 58 -8 50z"/>
<path d="M2701 2255 c-43 -39 -54 -62 -23 -50 62 25 73 25 101 -4 l28 -29 29
29 29 29 50 -15 50 -15 -48 46 c-38 37 -51 44 -70 38 -26 -9 -54 -9 -83 1 -17
5 -32 -2 -63 -30z"/>
<path d="M3015 2230 c-4 -17 -4 -47 0 -68 4 -25 1 -47 -9 -66 l-15 -29 -4 44
c-2 24 -4 -1 -5 -56 -1 -79 1 -95 10 -75 10 23 11 24 17 5 5 -15 15 -20 44
-20 26 0 37 4 38 15 0 8 2 26 3 40 5 39 -13 60 -41 49 -31 -11 -31 10 0 38 41
38 127 11 127 -41 0 -12 -3 -16 -8 -10 -12 17 -39 23 -51 11 -6 -6 -11 -30
-11 -54 0 -33 5 -45 21 -54 17 -9 24 -8 30 2 8 11 12 10 25 -6 14 -18 15 -15
8 50 -4 39 -10 106 -13 150 -5 73 -8 80 -28 83 -13 2 -23 8 -23 13 0 5 -24 9
-54 9 -52 0 -55 -1 -61 -30z"/>
<path d="M2596 2188 c-7 -30 -8 -136 0 -165 7 -26 24 -31 24 -8 0 8 4 15 9 15
5 0 12 -22 16 -50 6 -44 10 -50 31 -50 19 0 24 5 24 25 0 18 7 26 25 31 18 4
25 13 25 30 0 25 -14 32 -25 14 -14 -23 -25 4 -25 61 0 46 3 59 15 59 11 0 15
-11 15 -40 0 -38 1 -39 20 -28 17 11 22 10 29 0 14 -23 22 14 10 46 -23 59
-46 68 -124 42 -33 -11 -35 -14 -35 -57 0 -65 -8 -49 -15 27 -6 71 -10 81 -19
48z"/>
<path d="M2852 2175 c-23 -27 -32 -67 -27 -114 7 -58 -8 -86 -30 -57 -13 18
-15 18 -15 3 0 -10 7 -20 15 -23 8 -4 15 -17 15 -30 0 -33 39 -32 70 1 22 23
24 34 24 128 1 95 0 102 -19 104 -11 2 -26 -4 -33 -12z"/>
<path d="M2190 2138 c1 -41 23 -58 75 -58 36 0 55 -6 72 -22 l23 -21 0 20 c0
32 -10 53 -26 53 -7 0 -30 9 -51 19 -21 10 -50 22 -65 25 -24 6 -28 3 -28 -16z"/>
<path d="M2465 2155 c-5 -2 -22 -6 -37 -9 -25 -6 -28 -11 -28 -50 0 -42 1 -43
43 -55 23 -7 50 -15 60 -17 14 -5 17 2 17 42 l0 48 -30 -29 c-38 -37 -47 -28
-15 15 36 48 32 69 -10 55z"/>
<path d="M920 2103 c1 -25 29 -73 44 -73 3 0 6 23 6 50 0 47 -2 50 -25 50 -21
0 -25 -5 -25 -27z"/>
<path d="M4030 2070 c0 -57 8 -62 33 -21 26 43 22 71 -8 71 -23 0 -25 -3 -25
-50z"/>
<path d="M2191 2064 c0 -11 3 -14 6 -6 3 7 2 16 -1 19 -3 4 -6 -2 -5 -13z"/>
<path d="M2331 1984 c-1 -17 -11 -24 -47 -33 -25 -6 -49 -9 -55 -6 -5 4 -9
-12 -9 -37 0 -29 3 -38 9 -29 11 17 109 10 121 -9 5 -8 11 -60 15 -117 4 -57
11 -105 15 -108 4 -2 12 48 19 112 6 65 14 119 16 122 3 2 30 6 60 9 l54 4 4
-63 c3 -53 3 -48 5 29 1 59 -2 91 -8 87 -20 -12 -88 15 -95 38 -7 21 -7 21
-13 2 -5 -15 -16 -20 -42 -20 -26 0 -37 5 -42 20 -6 19 -6 19 -7 -1z"/>
<path d="M3626 1961 c-4 -6 -19 -11 -34 -11 -21 0 -41 -16 -84 -66 -54 -60
-58 -69 -57 -112 1 -42 2 -44 11 -22 7 18 25 30 62 43 65 21 72 21 96 -1 35
-32 53 -115 30 -138 -14 -14 7 -74 26 -74 19 0 29 46 17 84 -12 41 -1 91 28
122 27 29 29 29 101 7 41 -13 58 -24 61 -38 3 -17 4 -18 11 -4 23 51 -72 184
-143 200 -21 5 -40 4 -45 -1 -16 -16 -54 -12 -64 6 -6 11 -11 13 -16 5z"/>
<path d="M1753 1931 c-51 -15 -53 -17 -53 -52 0 -20 3 -50 6 -67 6 -28 10 -30
53 -34 25 -2 49 1 53 6 10 14 0 62 -19 99 -13 26 -13 30 4 42 29 21 12 24 -44
6z"/>
<path d="M1040 1929 c0 -11 211 -242 216 -236 1 1 -2 53 -8 115 -11 107 -12
112 -34 112 -13 0 -26 5 -29 10 -9 14 -145 13 -145 -1z m150 -54 c0 -8 -4 -15
-10 -15 -5 0 -10 7 -10 15 0 8 5 15 10 15 6 0 10 -7 10 -15z"/>
<path d="M2900 1932 c-22 -7 -60 -44 -60 -59 0 -15 6 -15 35 -4 29 12 45 -6
45 -50 0 -22 5 -39 11 -39 7 0 9 11 6 29 -4 17 0 36 9 49 12 18 19 20 40 12
32 -13 34 -13 34 3 0 37 -74 73 -120 59z"/>
<path d="M2630 1875 c0 -25 5 -45 10 -45 6 0 10 5 10 10 0 6 5 10 11 10 8 0
10 -12 6 -33 -6 -37 5 -67 17 -48 4 6 7 21 6 34 -4 44 -1 51 15 37 13 -11 15
-6 14 36 -1 40 -3 43 -8 20 -5 -23 -12 -30 -33 -30 -24 -1 -28 2 -28 26 0 15
-4 28 -10 28 -5 0 -10 -20 -10 -45z"/>
<path d="M3230 1870 c0 -5 5 -10 10 -10 6 0 10 5 10 10 0 6 -4 10 -10 10 -5 0
-10 -4 -10 -10z"/>
<path d="M3313 1755 c0 -44 2 -61 4 -37 2 23 2 59 0 80 -2 20 -4 1 -4 -43z"/>
<path d="M2804 1805 c-4 -9 -5 -17 -3 -18 2 -1 18 -9 34 -17 l30 -16 3 -124
c2 -116 4 -122 18 -101 11 15 23 21 35 18 16 -4 19 0 19 29 0 34 -29 62 -50
49 -6 -3 -10 0 -10 8 0 25 61 37 113 23 35 -11 34 -23 -3 -31 -28 -6 -30 -10
-30 -48 l1 -42 22 28 c24 28 62 36 70 15 3 -10 9 -10 26 0 11 6 28 12 36 12
13 0 16 13 14 77 -2 69 0 78 21 95 12 10 29 18 37 18 8 0 11 5 8 10 -3 6 -15
10 -25 10 -10 0 -20 6 -23 13 -3 8 -13 4 -31 -12 -26 -24 -38 -17 -13 8 10 10
8 12 -8 9 -11 -2 -21 -12 -22 -23 -1 -11 -5 -50 -8 -87 -7 -75 -24 -92 -26
-25 l-2 42 -7 -35 c-6 -29 -8 -24 -9 32 -1 76 -7 98 -27 98 -10 0 -14 -12 -14
-39 0 -41 -18 -65 -46 -59 -9 2 -20 10 -24 18 -33 71 -36 75 -68 78 -22 2 -34
-2 -38 -13z"/>
<path d="M1538 1754 c-5 -4 -8 -17 -8 -29 0 -17 -11 -24 -67 -39 -54 -14 -68
-15 -74 -4 -5 7 -8 -52 -7 -132 2 -137 2 -140 7 -50 l6 95 58 3 c34 2 65 -2
73 -9 7 -6 21 -9 29 -5 10 3 15 -1 15 -12 0 -9 7 -82 15 -162 8 -80 15 -153
15 -162 0 -10 4 -18 9 -18 11 0 16 33 32 221 11 122 14 136 29 132 10 -3 21 0
24 6 4 6 36 11 72 11 l64 0 0 -97 c0 -135 7 -113 10 32 4 147 3 164 -9 147 -6
-11 -20 -10 -74 4 -59 14 -67 19 -67 40 0 12 -4 26 -10 29 -6 4 -10 -7 -10
-24 0 -17 -4 -31 -10 -31 -5 0 -10 5 -10 10 0 6 -15 10 -34 10 -19 0 -38 -4
-41 -10 -12 -19 -24 -10 -27 21 -2 17 -6 27 -10 23z"/>
<path d="M2328 1735 c-4 -17 -1 -25 8 -25 8 0 14 11 14 25 0 14 -4 25 -9 25
-5 0 -11 -11 -13 -25z"/>
<path d="M3267 1695 c-10 -99 -9 -315 2 -315 17 0 24 127 15 258 l-9 127 -8
-70z"/>
<path d="M2180 1730 c0 -5 5 -10 10 -10 6 0 10 5 10 10 0 6 -4 10 -10 10 -5 0
-10 -4 -10 -10z"/>
<path d="M2516 1700 c-37 -44 -35 -90 5 -132 28 -30 30 -30 15 -6 -9 15 -16
32 -16 38 0 15 41 12 74 -5 32 -17 58 -19 72 -6 15 15 83 30 90 20 3 -5 -4
-23 -16 -39 -12 -17 -17 -30 -11 -30 17 0 51 66 51 99 0 21 -10 41 -31 63 -30
32 -31 20 -1 -14 32 -38 -15 -44 -82 -11 -25 13 -33 13 -65 0 -65 -28 -81 -30
-81 -11 0 10 7 26 17 36 9 10 14 21 11 23 -3 3 -17 -8 -32 -25z"/>
<path d="M2151 1658 c-1 -18 -73 -44 -91 -33 -6 4 -10 -8 -10 -27 l0 -33 59 2
60 1 5 -54 c18 -166 18 -170 26 -142 5 15 11 65 15 110 l7 83 53 3 c52 3 54 2
58 -25 2 -15 5 -2 6 30 0 32 -3 56 -8 53 -18 -11 -74 7 -78 26 -6 20 -23 25
-23 6 0 -20 -68 -18 -73 1 -4 13 -5 13 -6 -1z"/>
<path d="M3381 1618 c0 -33 3 -58 9 -58 12 0 12 20 1 75 -9 40 -9 39 -10 -17z"/>
<path d="M3490 1630 c0 -5 7 -10 15 -10 8 0 15 5 15 10 0 6 -7 10 -15 10 -8 0
-15 -4 -15 -10z"/>
<path d="M3018 1543 c-5 -18 -16 -23 -57 -29 l-51 -7 1 -61 c1 -49 3 -54 8
-26 5 31 10 35 39 38 19 2 41 0 50 -4 10 -4 20 -7 23 -6 7 1 14 -45 25 -165 4
-40 10 -71 14 -68 4 3 11 46 14 97 8 108 15 140 26 133 5 -3 11 -1 15 5 9 14
82 12 88 -2 2 -7 8 -1 12 14 10 37 2 45 -51 53 -34 5 -48 12 -51 26 -3 10 -9
19 -14 19 -5 0 -6 -6 -3 -13 3 -9 -7 -12 -36 -12 -27 0 -40 4 -43 15 -2 10 -5
8 -9 -7z"/>
<path d="M3323 1510 c0 -30 2 -43 4 -27 2 15 2 39 0 55 -2 15 -4 2 -4 -28z"/>
<path d="M1922 1470 l-3 -85 -44 -45 c-42 -42 -68 -101 -51 -117 3 -4 6 0 6 8
0 8 20 22 45 31 l45 17 2 -107 2 -107 5 104 c6 97 7 102 23 85 23 -26 33 -71
19 -88 -11 -13 0 -66 14 -66 13 0 24 51 16 73 -10 25 6 74 31 95 12 10 24 9
61 -5 43 -16 46 -20 50 -57 3 -34 4 -31 5 16 2 51 -1 60 -34 100 -34 41 -95
76 -102 57 -5 -12 -39 -12 -47 1 -3 5 -12 7 -20 4 -11 -5 -15 11 -18 83 l-3
88 -2 -85z"/>
<path d="M3393 1503 c-35 -7 -29 -33 7 -33 28 0 30 -3 30 -34 0 -19 5 -38 10
-41 6 -4 10 10 10 34 0 31 4 41 20 46 11 3 24 3 30 0 5 -3 10 0 10 8 0 21 -59
31 -117 20z"/>
<path d="M2598 1440 c-16 -16 -28 -38 -27 -52 1 -15 3 -17 6 -7 5 20 53 31 71
17 6 -6 12 -28 12 -50 0 -25 4 -37 11 -33 5 4 8 19 4 34 -8 37 13 61 47 54 15
-3 29 -13 31 -22 3 -11 5 -9 6 6 2 39 -40 75 -89 78 -37 2 -49 -2 -72 -25z"/>
<path d="M2375 1436 c-18 -27 -8 -69 19 -79 20 -8 21 -37 1 -37 -8 0 -15 -7
-15 -15 0 -9 6 -12 15 -9 10 4 15 0 15 -12 1 -18 1 -18 14 -1 17 23 24 22 29
-5 2 -13 5 -3 5 22 0 25 -2 39 -5 33 -7 -19 -23 -16 -23 5 0 9 9 23 20 30 22
14 27 61 8 80 -21 21 -66 14 -83 -12z"/>
<path d="M2765 1440 c3 -5 10 -10 16 -10 5 0 9 5 9 10 0 6 -7 10 -16 10 -8 0
-12 -4 -9 -10z"/>
<path d="M2852 1306 c-2 -49 0 -57 12 -47 11 10 16 8 21 -8 3 -12 3 -26 0 -31
-10 -16 4 -62 16 -54 6 3 9 25 8 48 -3 37 -1 41 19 39 20 -3 22 2 22 47 0 27
-4 52 -10 55 -6 4 -10 -8 -10 -27 0 -32 -2 -34 -34 -35 -33 -1 -35 1 -39 36
-2 25 -4 18 -5 -23z"/>
<path d="M3328 1263 c-26 -29 -30 -60 -14 -92 9 -16 22 -33 28 -37 7 -5 5 4
-5 20 -10 15 -16 31 -12 34 3 4 28 -2 55 -11 46 -16 52 -16 81 -2 17 9 38 14
46 11 13 -6 13 -9 -2 -34 l-16 -27 25 28 c33 36 33 68 0 104 l-26 28 16 -27
c9 -15 16 -30 16 -33 0 -10 -35 -5 -64 10 -25 13 -33 13 -77 -2 -56 -20 -67
-15 -44 21 20 30 15 34 -7 9z"/>
<path d="M2615 1250 c-4 -6 3 -10 14 -10 25 0 27 6 6 13 -8 4 -17 2 -20 -3z"/>
<path d="M1856 1233 c-11 -11 -6 -23 9 -23 8 0 15 4 15 9 0 13 -16 22 -24 14z"/>
<path d="M2514 1085 c0 -88 2 -123 3 -77 2 46 2 118 0 160 -1 42 -3 5 -3 -83z"/>
<path d="M2196 1139 c-15 -18 -26 -43 -26 -61 0 -31 33 -88 51 -88 6 0 1 12
-10 26 -12 15 -21 31 -21 36 0 12 70 1 85 -13 12 -12 58 -12 71 0 5 5 24 12
42 16 26 5 32 4 32 -11 0 -10 -7 -26 -17 -36 -9 -10 -11 -18 -5 -18 16 0 52
64 52 94 0 15 -13 39 -31 58 l-31 33 22 -37 22 -38 -26 0 c-14 0 -41 8 -61 17
-33 16 -37 16 -70 0 -49 -23 -86 -23 -78 1 3 9 13 25 21 35 8 9 13 17 9 17 -3
0 -17 -14 -31 -31z"/>
<path d="M3055 1160 c-4 -6 3 -10 14 -10 25 0 27 6 6 13 -8 4 -17 2 -20 -3z"/>
<path d="M2800 1126 c0 -24 -2 -25 -26 -14 -20 9 -30 9 -45 0 -16 -11 -19 -9
-19 8 0 11 -5 20 -10 20 -6 0 -10 -7 -8 -16 2 -12 -10 -20 -42 -30 -25 -8 -50
-12 -57 -9 -19 6 -23 -24 -14 -100 l8 -70 2 59 1 59 48 -8 c26 -4 55 -8 64 -8
21 -2 25 -17 34 -142 8 -118 19 -159 27 -105 4 19 9 71 12 115 8 112 13 131
33 131 9 1 38 4 64 8 l47 8 4 -73 c3 -65 3 -62 5 28 2 78 -1 101 -10 98 -24
-9 -103 22 -100 38 1 9 -2 18 -8 22 -6 4 -10 -4 -10 -19z"/>
<path d="M3200 1052 c-27 -8 -70 -55 -70 -76 0 -12 3 -16 8 -10 11 17 54 24
69 12 7 -6 13 -28 13 -49 0 -22 5 -39 10 -39 6 0 10 17 10 39 0 49 20 69 56
52 32 -14 34 -14 34 2 0 7 -13 26 -29 41 -22 21 -37 27 -55 24 -14 -3 -27 -2
-28 2 -2 4 -10 5 -18 2z"/>
<path d="M1862 1000 c0 -30 2 -49 5 -42 11 27 23 10 23 -33 0 -25 5 -45 10
-45 6 0 10 20 10 45 0 43 12 60 23 33 3 -7 5 12 5 42 -1 30 -3 41 -5 24 -3
-26 -8 -31 -33 -31 -25 0 -30 5 -33 31 -2 17 -4 6 -5 -24z"/>
<path d="M2265 915 c-54 -13 -95 -31 -95 -42 0 -8 5 -11 11 -8 5 4 21 4 35 1
20 -5 24 -13 25 -44 1 -20 4 -50 8 -67 6 -25 8 -19 12 33 5 64 16 82 51 82 9
0 18 -10 21 -22 3 -17 5 -15 6 8 1 27 -3 33 -26 39 -15 3 -30 10 -33 14 -3 5
-9 7 -15 6z"/>
<path d="M2435 809 c-4 -6 -5 -13 -2 -16 7 -7 27 6 27 18 0 12 -17 12 -25 -2z"/>
<path d="M2992 730 c0 -30 2 -49 5 -42 11 27 23 10 23 -33 0 -25 5 -45 10 -45
6 0 10 20 10 45 0 43 12 60 23 33 3 -7 5 12 5 42 -1 30 -3 41 -5 24 -3 -26 -8
-31 -33 -31 -25 0 -30 5 -33 31 -2 17 -4 6 -5 -24z"/>
<path d="M2512 730 c0 -19 2 -27 5 -17 2 9 2 25 0 35 -3 9 -5 1 -5 -18z"/>
<path d="M2479 656 c-78 -45 -78 -41 2 -122 66 -67 74 -71 96 -61 18 8 29 8
42 0 15 -10 29 -1 90 61 81 81 81 81 -7 125 -58 29 -170 28 -223 -3z m135 -57
c-8 -14 -34 -11 -34 4 0 8 3 17 7 20 9 9 34 -13 27 -24z m-74 -9 c0 -11 -7
-20 -15 -20 -8 0 -15 9 -15 20 0 11 7 20 15 20 8 0 15 -9 15 -20z m145 0 c0
-22 -29 -18 -33 3 -3 14 1 18 15 15 10 -2 18 -10 18 -18z m-70 -51 c0 -7 -8
-15 -17 -17 -18 -3 -25 18 -11 32 10 10 28 1 28 -15z m-47 -21 c-7 -19 -38
-22 -38 -4 0 10 9 16 21 16 12 0 19 -5 17 -12z m92 -3 c0 -8 -7 -15 -15 -15
-8 0 -15 7 -15 15 0 8 7 15 15 15 8 0 15 -7 15 -15z"/>
<path d="M2372 546 c-26 -52 -27 -55 -5 -71 15 -11 15 -13 -5 -24 -27 -15 -28
-36 -2 -54 18 -12 19 -16 6 -27 -14 -10 -13 -17 5 -53 12 -23 32 -53 45 -67
12 -14 45 -74 71 -134 26 -60 53 -111 59 -113 21 -7 34 99 14 112 -6 4 -10 55
-10 121 l0 114 44 0 c54 0 56 -4 56 -125 0 -70 -4 -96 -15 -105 -21 -18 -16
-120 6 -120 5 0 37 56 70 125 34 69 64 125 69 125 4 0 11 -15 16 -32 13 -44
39 -48 53 -7 16 46 14 67 -8 86 -16 13 -17 20 -8 40 8 19 8 26 -3 33 -12 7
-11 12 3 28 21 23 22 38 1 50 -14 8 -14 12 -3 30 11 17 10 27 -6 62 -10 22
-23 44 -28 47 -5 3 -40 -25 -78 -63 -57 -57 -69 -74 -69 -101 0 -34 -21 -53
-58 -53 -26 0 -52 31 -52 62 0 17 -20 46 -64 91 -35 37 -68 67 -73 67 -5 0
-19 -20 -31 -44z m71 -132 c-6 -16 -29 -19 -38 -4 -4 6 -1 17 5 26 15 18 42 0
33 -22z m67 11 c0 -19 -20 -29 -32 -17 -15 15 -2 43 17 36 8 -3 15 -12 15 -19z
m220 0 c0 -19 -20 -29 -32 -17 -15 15 -2 43 17 36 8 -3 15 -12 15 -19z m58 -2
c-2 -10 -10 -18 -18 -18 -8 0 -16 8 -18 18 -2 12 3 17 18 17 15 0 20 -5 18
-17z"/>
<path d="M2574 435 c-8 -20 4 -35 27 -35 14 0 19 7 19 25 0 18 -5 25 -20 25
-11 0 -23 -7 -26 -15z"/>
<path d="M2570 231 l0 -101 30 0 31 0 -3 98 -3 97 -27 3 -28 3 0 -100z"/>
</g>
</svg>
